<svg xmlns="http://www.w3.org/2000/svg" width="24" height="24"><path d="M9.431 17.629l-.972.966a2.177 2.177 0 0 1-3.054 0 2.113 2.113 0 0 1 0-3.004l3.576-3.546c.74-.736 2.135-1.818 3.151-.81a1.19 1.19 0 0 0 1.677-1.688c-1.726-1.714-4.279-1.397-6.503.81L3.73 13.904a4.464 4.464 0 0 0-1.33 3.19c0 1.207.473 2.339 1.33 3.19.883.876 2.042 1.315 3.203 1.315s2.321-.438 3.203-1.315l.973-.966a1.186 1.186 0 0 0 .006-1.68 1.194 1.194 0 0 0-1.684-.007zM20.269 3.848c-1.856-1.841-4.451-1.94-6.167-.236l-1.211 1.202a1.188 1.188 0 1 0 1.675 1.687L15.778 5.3c.888-.883 2.053-.517 2.815.236.403.402.626.935.626 1.502s-.223 1.1-.626 1.501l-3.816 3.785c-1.745 1.729-2.563.919-2.912.572a1.188 1.188 0 1 0-1.675 1.687c.802.794 1.716 1.188 2.674 1.188 1.172 0 2.412-.59 3.592-1.76l3.816-3.784a4.48 4.48 0 0 0 1.328-3.19 4.471 4.471 0 0 0-1.331-3.191z"/></svg>