<svg xmlns="http://www.w3.org/2000/svg" width="22" height="24"><path d="M19.5 16.286c0-.348-.134-.67-.375-.911l-2.786-2.786a1.3 1.3 0 0 0-1.875.054c.442.442.964.817.964 1.5 0 .71-.576 1.286-1.286 1.286-.683 0-1.058-.522-1.5-.964-.281.268-.442.576-.442.978 0 .335.134.67.375.911l2.759 2.772c.241.241.576.362.911.362s.67-.121.911-.348l1.969-1.955c.241-.241.375-.563.375-.897zm-9.415-9.442a1.3 1.3 0 0 0-.375-.911L6.951 3.161c-.241-.241-.576-.375-.911-.375s-.67.134-.911.362L3.16 5.103a1.277 1.277 0 0 0 0 1.808l2.786 2.786c.241.241.576.362.911.362.388 0 .696-.134.964-.415-.442-.442-.964-.817-.964-1.5 0-.71.576-1.286 1.286-1.286.683 0 1.058.522 1.5.964.281-.268.442-.576.442-.978zm11.986 9.442a3.833 3.833 0 0 1-1.138 2.719l-1.969 1.955a3.83 3.83 0 0 1-2.719 1.112 3.809 3.809 0 0 1-2.732-1.138l-2.759-2.772a3.83 3.83 0 0 1-1.112-2.719 3.92 3.92 0 0 1 1.179-2.799l-1.179-1.179a3.892 3.892 0 0 1-2.786 1.179 3.873 3.873 0 0 1-2.732-1.125L1.338 8.733A3.816 3.816 0 0 1 .213 6.001c0-1.018.415-2.009 1.138-2.719L3.32 1.327A3.83 3.83 0 0 1 6.039.215c1.031 0 2.009.402 2.732 1.138l2.759 2.772a3.83 3.83 0 0 1 1.112 2.719 3.92 3.92 0 0 1-1.179 2.799l1.179 1.179a3.892 3.892 0 0 1 2.786-1.179c1.018 0 2.009.402 2.732 1.125l2.786 2.786a3.816 3.816 0 0 1 1.125 2.732z"/></svg>