<svg xmlns="http://www.w3.org/2000/svg" width="22" height="24"><path d="M8.571 20.571c0 .938-.777 1.714-1.714 1.714s-1.714-.777-1.714-1.714.777-1.714 1.714-1.714 1.714.777 1.714 1.714zm12 0c0 .938-.777 1.714-1.714 1.714s-1.714-.777-1.714-1.714.777-1.714 1.714-1.714 1.714.777 1.714 1.714zM22.286 6v6.857a.877.877 0 0 1-.763.857L7.541 15.348c.067.308.174.616.174.938 0 .308-.188.589-.321.857h12.321c.469 0 .857.388.857.857s-.388.857-.857.857H6.001A.863.863 0 0 1 5.144 18c0-.415.603-1.42.817-1.835L3.59 5.143H.858c-.469 0-.857-.388-.857-.857s.388-.857.857-.857h3.429c.897 0 .924 1.071 1.058 1.714H21.43c.469 0 .857.388.857.857z"/></svg>